PathFileType	4	(X/Y/Z)	T1_P2_NoVision_NoMovement_3_0-734.trc
DataRate	CameraRate	NumFrames	NumMarkers	Units	OrigDataRate	OrigDataStartFrame	OrigNumFrames
60	60	7	27	m	60	275	734
Frame#	Time	RHip			RKnee			RAnkle			RBigToe			RSmallToe			RHeel			LHip			LKnee			LAnkle			LBigToe			LSmallToe			LHeel			Neck			Head			Nose			RShoulder			RElbow			RWrist			RThumb			RIndex			RPinky			LShoulder			LElbow			LWrist			LThumb			LIndex			LPinky		
		X1	Y1	Z1	X2	Y2	Z2	X3	Y3	Z3	X4	Y4	Z4	X5	Y5	Z5	X6	Y6	Z6	X7	Y7	Z7	X8	Y8	Z8	X9	Y9	Z9	X10	Y10	Z10	X11	Y11	Z11	X12	Y12	Z12	X13	Y13	Z13	X14	Y14	Z14	X15	Y15	Z15	X16	Y16	Z16	X17	Y17	Z17	X18	Y18	Z18	X19	Y19	Z19	X20	Y20	Z20	X21	Y21	Z21	X22	Y22	Z22	X23	Y23	Z23	X24	Y24	Z24	X25	Y25	Z25	X26	Y26	Z26	X27	Y27	Z27
276	4.6	470.65918060753535	3642.078937942169	536.1032085516404	871.2425627472144	3694.2481727692	553.3834397406883	1257.0506787326328	3750.1734008933895	620.5023985542524	1322.884241104379	3613.284434137334	558.5824931667509	1315.688548763936	3676.0841123638434	522.2134755550744	1275.0094022413407	3720.387436835976	620.1349351067036	465.77137338331966	3525.1710334377144	737.4548263191978	869.9453702484968	3551.9468246427505	739.6335763860671	1232.5835184873242	3605.979855014112	723.5922825200087	1313.2798929914404	3510.744311609511	664.1550377336652	1270.8237531979319	3444.287147020109	699.8079579432233	1271.8317838109763	3626.1275191796467	716.659537334473	-126.23727753828243	3538.2178266410046	642.026220452735	-382.84874301161415	3521.9978756875903	644.8723813093563	-238.38832285949042	3463.530984255241	613.6059811305245	-47.717341133211995	3697.2742869029153	537.7166056798561	202.07744781357334	3660.520870202791	437.49068730096127	355.2449127153689	3472.3563685415493	496.5142904815151	430.87063879453945	3437.446900260281	574.625987122954	436.66571927302465	3439.5618486765834	592.1374813014462	458.8510797554402	3429.0208501261573	575.8905215622736	-24.762410581923145	3548.6891857009355	832.1340680021403	223.04568412021482	3421.0270039606457	778.7800500819274	368.5584476485185	3398.056132120848	599.5902254068078	413.3840272935689	3412.0333612178138	505.0203161047267	434.9289150285954	3431.641406262978	510.57948047764114	460.05063451550956	3416.5664830031424	570.0712259242758
277	4.616666666666666	470.8825776581226	3642.230217932197	536.1049551326769	870.4314794627227	3691.7895692062075	552.6634709420817	1258.278629399489	3753.957888303552	621.5985102811907	1320.750400653461	3612.6841793353883	557.6433595726618	1313.682917312885	3675.304303598594	521.8149145485388	1275.0325723313388	3718.994251420753	620.1512984992025	465.3278423229427	3521.290036975641	734.1158794831723	867.10018881167	3548.932945914733	736.9534830706252	1231.9866250846806	3607.225552430841	724.0501462505504	1312.5936091090362	3516.374387822277	665.426735262268	1270.9094136561082	3444.7067674522223	699.230098695636	1271.8832935873045	3626.4067499918124	716.9175380145451	-124.6391793919299	3536.7528125677336	641.2485390663173	-383.31055663069014	3521.3066514718357	644.4849926509448	-239.35296460418837	3462.954611290652	613.426062497316	-48.991003161812245	3695.691780867031	536.2123579369904	200.83778351087852	3661.678585607302	437.9800880136172	354.8412647220228	3472.711428784306	496.57155348820083	431.758609075805	3447.3277720877904	580.14433204086	435.9601859365169	3441.1162935941843	592.061821460723	459.3681650809396	3432.152763605115	575.996791389233	-22.989249045754278	3549.031153634315	832.1970850424551	223.29277907991622	3419.6594020362836	776.1484572662541	370.53125197762364	3399.6253105446376	600.0313221651452	414.486946301675	3417.841030647743	503.882050684986	435.00720009939556	3436.635425284447	508.4873559029335	459.8577796327846	3417.5249979106006	566.6506554604266
278	4.633333333333334	468.4739849917237	3637.8591110335647	533.0092424278988	866.3814320299657	3686.7916288538	549.9528403347306	1257.0251274632494	3754.2981634091975	621.589513396227	1319.7042198773688	3613.6082678734183	558.0318570477832	1312.3080762524469	3674.674192371932	521.4154098443311	1274.0983739361018	3716.799513673094	620.78000652387	464.43126325154327	3516.213063102839	729.5619416369565	862.1268682489241	3543.359830676586	731.3097305357459	1231.483662054568	3607.652302356624	724.6226763681134	1311.2736556296763	3519.489809530953	665.2036091979829	1270.7975588687948	3444.7460068426735	698.717870810969	1272.1622282682954	3626.0604854260637	716.7565225767933	-123.4260065041419	3535.6356241857175	640.6591014055355	-384.3348976671569	3521.2787473462677	644.4944463740367	-239.6658601821755	3462.7873105164654	613.3979325199015	-49.53269262658614	3694.6846970697616	535.3824615751419	199.11076104747957	3661.4495501948318	437.3023330640603	353.0606473681032	3471.919865322728	495.629082981718	429.13826306882936	3451.412220990698	580.5037533072942	434.89010085096834	3442.7437872266923	591.5579628432228	459.97045600785634	3432.2954198576654	576.1381338820709	-21.278949531807484	3548.8589071301412	831.9805113425197	223.25879350097765	3418.463778486372	773.6817179933141	372.5174760956147	3401.1977280140936	600.617770472081	416.2612631216147	3424.2026651500614	503.30429885042395	436.0315254279707	3441.971758302787	507.52617667544496	460.7026959663512	3418.4131362961666	564.1114025744985
279	4.65	464.2220936094423	3632.701051228358	529.5101551876949	860.965454587936	3682.025313520183	546.7957836714126	1254.5626622500617	3751.44691967404	620.661823822608	1320.2404941138675	3614.0208619084665	558.3762376259563	1312.3138776330525	3674.4471548745546	521.2479064414792	1273.0273344721716	3715.1599035430772	622.0404370708987	462.55189131665674	3512.548142030288	725.7219489817672	857.002885231574	3538.1142095025425	725.1567921735186	1231.5073095042826	3606.3089825766524	724.127150409878	1310.6983728660298	3519.6227247598777	664.3597584817371	1270.2291274717227	3444.344094263549	698.3790268781645	1272.9857680528482	3624.693797083413	715.8902671970964	-123.09519083872428	3535.3209012314474	640.4916341487244	-385.59589933850117	3522.3118157429244	645.0895206792549	-238.85616833978582	3463.340039894442	613.6386719506422	-49.57676775070336	3696.220091002583	536.5696097918183	197.5012478983133	3658.1920908233187	434.4277992117263	349.57726922742967	3468.587233519146	492.78979181814253	423.82869081149886	3448.5794312841836	573.1016454504215	432.9331522845397	3446.466117773802	591.3379395251491	458.82380182116594	3428.897238098595	575.3856471189156	-19.89184838197682	3547.992754927561	831.4262443584169	223.28869434115342	3415.663361667177	769.8091506879763	374.25100518015716	3402.5647854445756	601.1090022152295	417.63176479084166	3427.609703266496	503.2105996099593	437.09434524642006	3444.997242617978	507.0237694244961	461.1035176125081	3416.00346179377	560.9365593533253
280	4.666666666666667	459.614784583202	3629.9822755760392	527.7984083589862	856.1069679750027	3678.961192189937	543.7560107856369	1252.5485414771824	3747.456146055313	619.5171569693512	1321.6744552429122	3613.304566813251	558.1272676220439	1313.169834354482	3674.5001163630122	521.3125183232073	1271.9763937176406	3714.2028341442906	623.0968224366126	459.6732622017836	3511.8952064070563	723.5462137840257	853.7087353860234	3536.960865829358	722.5897116308432	1230.8612000737262	3603.818375574133	722.5433456584717	1311.2737286517388	3518.331388099284	663.9218032655915	1269.3323206819164	3444.1016995870923	698.3891476789477	1274.0905305812112	3622.820509334423	714.6714923435414	-123.59187168821641	3535.7568983348165	640.7214034700038	-386.6020287767994	3523.5968335956177	645.7805252105283	-237.37866300013755	3464.3540441689192	614.0524269283558	-49.506762885526776	3699.307251789363	538.7647244145138	196.31841237691523	3652.9801365767166	430.24716713431354	345.3842410946099	3463.3264876158096	488.66009979402673	417.93197186998134	3443.4855189946074	561.6531542272254	431.1528541211901	3453.329432613485	592.2524141920871	455.7743919050274	3425.4731318955273	574.4563925024338	-19.35005648146022	3547.3772004615557	831.0659846414923	223.70441000280033	3411.641175280072	765.2462184577831	374.99264634438464	3403.131812199517	601.3164339883463	417.59264661536804	3427.899505408168	503.74557421719766	437.36304530557675	3445.504126338515	506.65388344383877	460.3785746370315	3410.066336915839	556.7727362671556
281	4.683333333333334	456.540101413715	3629.607167619264	527.6032268491052	852.9140119036257	3677.5734096702326	541.0999215223022	1252.4746771552975	3745.889523388262	619.1599414859099	1322.794428388657	3612.480368845891	557.7252650833351	1314.3606010724693	3674.7141961001757	521.5472799348008	1271.35712603902	3714.543973644275	623.4012603383063	456.97434737168703	3513.6418614486383	722.6855199645705	853.106836779076	3540.4073849133783	724.736513578883	1228.7242972799477	3601.875448757893	721.1009919759342	1312.6130399462295	3518.328923393455	664.4466041630928	1268.920467390734	3445.031877229227	699.2781876151118	1274.6305878099847	3621.1160828239945	713.4729667299775	-124.44360654847007	3536.514398548572	641.129210872617	-386.9641826291404	3523.9550251331893	645.9233585161027	-236.19708782469854	3465.198306784742	614.389496560744	-49.5099693472827	3701.739652429597	540.2641458101168	195.17913323663586	3649.072015448315	427.12608084958646	342.0458944685246	3458.9058786080086	485.2448922631928	413.8071346275503	3440.398212863908	552.8716367598818	430.77328779667056	3461.347344533259	594.0554359855403	452.829533518884	3426.220241542746	574.472441569717	-19.690675688470346	3547.7775644376657	831.3237391300954	224.170538922868	3408.3844412940443	761.9091793911692	374.28075799059695	3402.5792534772672	601.2129708677688	416.2888880813475	3426.6560540653736	504.66463387075476	436.4934967760067	3443.152016368149	505.9122072566519	459.0566253454043	3403.199838075606	552.781679078111
282	4.7	456.55114537678	3630.101210640408	527.8023073035519	851.6837621363678	3677.286025166948	539.4367798354018	1254.2225823887047	3748.361129591931	619.8999403524169	1323.0095219469154	3612.6527954019734	557.7980904595245	1315.3756799186067	3674.952620270101	521.8051325540391	1271.6561272727388	3717.2026146066955	623.457207945577	455.887938471224	3516.085381368801	722.5635202051301	854.2835599011073	3544.1031565542366	727.8782804747352	1226.126673318075	3601.224181040823	720.5068876664345	1314.0015722983007	3520.3659788794375	665.822676000135	1269.4990119697106	3446.972648390828	701.2137819976632	1273.7008568862416	3619.3117869366192	711.8631990943542	-124.76570759623695	3536.925054383987	641.3598740004219	-386.5155947765316	3523.4868456731488	645.5611389828958	-235.73162739566718	3465.5732033537884	614.528784397423	-49.585722593991626	3702.186261441913	540.7227799318589	193.35992673397652	3648.0399840523883	426.2173787043338	340.4659343927912	3457.1497847717446	483.7442354375488	412.26983170712543	3438.728246083741	549.6095541214311	431.3272101931848	3466.5124508689514	595.4882564456501	451.9364139695213	3431.557438719839	574.9899942308904	-20.05373522059357	3548.955433589015	832.0320319331514	224.21896654738367	3406.9247357944378	760.5753321186966	372.5744926643966	3401.203462498243	600.9039526012414	414.8229122348875	3424.9899535699356	505.3407844723185	435.1260821088798	3437.466087315275	504.5255335751923	457.7110662142327	3398.133616779642	549.6240131576631
